# xmcd
#
# Track frame offsets:
#	150
#	8659
#	18873
#	29410
#	41465
#	50572
#	60302
#	70881
#	80738
#	88602
#	97930
#	109386
#
# Disc length: 1605 seconds
#
# Revision: 1
# Processed by: cddbd v1.5.2PL0 Copyright (c) Steve Scherf et al.
# Submitted via: EasyCDDAExtractor 16.0.6.1
#
DISCID=8e06430c
DTITLE=ED LINCOLN - SEU PIANO E SEU ÓRGÃO ESPETACULAR
DYEAR=1963
DGENRE=POP
TTITLE0=MISS BALANÇO (HEITOR MENEZES)
TTITLE1=SÓ DANÇO SAMBA (ANTÔNIO CARLOS JOBIM - VINICIUS DE MORAES)
TTITLE2=VOU RIR DE VOCÊ (HEITOR MENEZES)
TTITLE3=INFLUÊNCIA DO JAZZ (CARLOS LYRA)
TTITLE4=UM SAMBA GOSTOSO (ED LINCOLN)
TTITLE5=VAMOS BALANÇAR (CARLOS IMPERIAL)
TTITLE6=O SAMBA É BOM ASSIM (PRA MIM) (HÉLIO NASCIMENTO - NORIVAL REIS)
TTITLE7=PRA QUE? (SILVIO CÉSAR)
TTITLE8=É UM ESTOURO (LUIZ PEREIRA - JAYME SILVA - NEUZA TEIXEIRA)
TTITLE9=BALANSAMBA Nº 1 (LUIZ BANDEIRA)
TTITLE10=TRISTEZA (ED LINCOLN - LUIZ BANDEIRA)
TTITLE11=OLHOU PRA MIM (ED LINCOLN - SILVIO CÉSAR)
EXTD=
EXTT0=
EXTT1=
EXTT2=
EXTT3=
EXTT4=
EXTT5=
EXTT6=
EXTT7=
EXTT8=
EXTT9=
EXTT10=
EXTT11=
PLAYORDER=
